<?xml version="1.0" encoding="UTF-8" standalone="no"?>
<!-- Created with Inkscape (http://www.inkscape.org/) -->

<svg
   width="512"
   height="512"
   viewBox="0 0 512 512"
   version="1.1"
   id="svg1"
   xml:space="preserve"
   xmlns="http://www.w3.org/2000/svg"
   xmlns:svg="http://www.w3.org/2000/svg"><defs
     id="defs1" /><g
     id="layer1"><path
       id="path14-5-2-2-4-8-4-6-7-3"
       style="fill:#ffffff;fill-opacity:1;stroke:none;stroke-width:0;stroke-dasharray:none;stroke-opacity:1;paint-order:markers fill stroke"
       d="m 0,0 c 0,170.667 0,341.333 0,512 34.134,0 68.267,0 102.4,0 0,-88.261 0,-176.522 0,-264.783 51.2,51.2 102.4,102.399 153.6,153.599 51.2,-51.2 102.4,-102.399 153.6,-153.599 0,88.261 0,176.522 0,264.783 34.133,0 68.267,0 102.4,0 0,-170.667 0,-341.333 0,-512 C 426.667,85.333 341.333,170.667 256,256 170.667,170.667 85.333,85.333 0,0 Z" /></g></svg>
