<?xml version="1.0" encoding="UTF-8" standalone="no"?>
<!-- Created with Inkscape (http://www.inkscape.org/) -->

<svg
   width="512"
   height="130.22113"
   viewBox="0 0 512 130.22113"
   version="1.1"
   id="svg1"
   xml:space="preserve"
   xmlns="http://www.w3.org/2000/svg"
   xmlns:svg="http://www.w3.org/2000/svg"><defs
     id="defs1" /><g
     id="layer1"
     transform="translate(-1.1823744e-6,-190.88943)"><g
       id="g89"
       transform="matrix(0.15841535,0,0,0.15841535,-194.69167,543.83899)"><g
         id="g87"
         transform="translate(0,-16.001)"><path
           id="rect51-8-5-2-3-2-3-6-4-6"
           style="fill:#ffffff;fill-opacity:1;stroke:none;stroke-width:64;stroke-linecap:butt;stroke-linejoin:miter;stroke-dasharray:none;stroke-opacity:1;paint-order:markers fill stroke"
           d="m 2861.001,-2212 v 512 h 102.4 v -256 -256 z m 102.4,256 262.838,256 h 146.762 l -262.838,-256 262.838,-256 h -146.762 z" /><path
           style="fill:#ffffff;fill-opacity:1;stroke:none;stroke-width:0;stroke-dasharray:none;stroke-opacity:1;paint-order:markers fill stroke"
           d="m 1772.997,-1700 256,-512 256,512 H 2170.51 L 2028.997,-1983.026 1887.484,-1700 Z"
           id="path13-2-8-8-1-8-8-0-1-3" /><path
           id="path14-5-2-2-4-8-4-6-7-6"
           style="fill:#ffffff;fill-opacity:1;stroke:none;stroke-width:0;stroke-dasharray:none;stroke-opacity:1;paint-order:markers fill stroke"
           d="m 1228.995,-2212 c 0,170.667 0,341.333 0,512 34.134,0 68.267,0 102.4,0 0,-88.261 0,-176.522 0,-264.783 51.2,51.2 102.4,102.399 153.6,153.599 51.2,-51.2 102.4,-102.399 153.6,-153.599 0,88.261 0,176.522 0,264.783 34.133,0 68.267,0 102.4,0 0,-170.667 0,-341.333 0,-512 -85.333,85.333 -170.667,170.667 -256,256 -85.333,-85.333 -170.667,-170.667 -256,-256 z" /><path
           style="fill:#ffffff;fill-opacity:1;stroke:none;stroke-width:100;stroke-linecap:butt;stroke-linejoin:miter;stroke-miterlimit:4;stroke-dasharray:none;stroke-opacity:1;paint-order:markers fill stroke"
           d="m 3949.005,-1700 v -512 l 409.599,307.199 V -2212 h 102.401 v 512 l -409.6,-307.2 v 307.2 z"
           id="path65-8-8-3-6-7-7-11-3" /><path
           id="rect27-9-7-4-5-3-6-4-8-6-6-1-3"
           style="fill:#ffffff;fill-opacity:1;stroke:none;stroke-width:0;stroke-dasharray:none;stroke-opacity:1;paint-order:markers fill stroke"
           d="m 2064.7734,-2212 51.2012,102.4004 h 610.625 v 102.4004 H 2316.998 L 2672.4062,-1700 h 156.5918 l -236.9394,-204.8008 H 2828.998 V -2212 Z" /><path
           style="fill:#ffffff;fill-opacity:1;stroke:none;stroke-width:0;stroke-dasharray:none;stroke-opacity:1;paint-order:markers fill stroke"
           d="m 3405.003,-1700 256,-512 256,512 H 3802.516 L 3661.003,-1983.026 3519.49,-1700 Z"
           id="path13-2-8-8-1-8-8-0-4-5-2" /></g><g
         id="g88"
         transform="matrix(0.54301061,0,0,0.54301061,662.77612,-957.72231)"><path
           style="fill:#ffffff;stroke-width:51.2002;paint-order:markers fill stroke"
           d="m 1586.742,-1337.5 v 512 h 512 v -102.401 h -409.6004 v -102.4 h 409.6004 v -102.4 H 1689.1416 V -1235.1 h 409.6004 v -102.4 z"
           id="path17-0-9-7-7-4" /><path
           id="path16-3-0-5-0-4"
           style="fill:#ffffff;stroke-width:51.1999;paint-order:markers fill stroke"
           d="m 1042.74,-1337.5 v 102.396 h 409.5985 v 102.402 H 1042.74 V -825.5 h 102.3996 v -204.802 H 1554.74 V -1337.5 Z" /><path
           id="path22-1-6-3-8-4-3"
           style="fill:#ffffff;stroke-width:51.1999;paint-order:markers fill stroke"
           d="m 3218.748,-1337.5 c 0,170.666 0,341.332 0,512 170.667,0 341.333,0 512,0 0,-170.668 0,-341.334 0,-512 -170.667,0 -341.333,0 -512,0 z m 102.402,102.4 c 102.399,0 204.799,0 307.198,0 0,102.4 0,204.8 0,307.198 -102.399,0 -204.799,0 -307.198,0 0,-102.398 0,-204.798 0,-307.198 z" /><path
           id="path22-1-6-5-2-3-0-9"
           style="fill:#ffffff;stroke-width:51.1998;paint-order:markers fill stroke"
           d="m 5938.758,-1337.5 c 0,170.667 0,341.333 0,512 170.667,0 341.333,0 512,0 0,-34.134 0,-68.268 0,-102.401 -136.533,0 -273.065,0 -409.598,0 0,-102.4 0,-204.8 0,-307.198 136.533,0 273.064,0 409.598,0 0,-34.133 0,-68.267 0,-102.401 -170.667,0 -341.333,0 -512,0 z" /><path
           id="rect27-9-7-4-5-3-6-1-6-79-8-7"
           style="fill:#ffffff;fill-opacity:1;stroke:none;stroke-width:0;stroke-dasharray:none;stroke-opacity:1;paint-order:markers fill stroke"
           d="m 2130.744,-1337.498 v 102.396 h 409.5985 V -1132.7 H 2130.744 l 355.408,307.2 h 156.592 l -236.9405,-204.802 H 2642.744 V -1337.5 Z" /><path
           style="fill:#ffffff;stroke-width:51.2002;paint-order:markers fill stroke"
           d="m 2674.746,-1337.5 v 512 h 102.4 v -204.801 h 409.6 v -102.4 h -409.6 V -1235.1 h 409.6 v -102.4 z"
           id="path17-0-9-7-8-1-5" /><path
           id="rect27-9-7-4-5-3-6-1-6-79-3-6-89"
           style="fill:#ffffff;fill-opacity:1;stroke:none;stroke-width:0;stroke-dasharray:none;stroke-opacity:1;paint-order:markers fill stroke"
           d="m 3762.75,-1337.498 v 102.396 h 409.599 V -1132.7 H 3762.75 l 355.408,307.2 h 156.592 l -236.941,-204.802 H 4274.75 V -1337.5 Z" /><path
           id="path14-5-2-2-4-8-4-6-0-6-0"
           style="fill:#ffffff;fill-opacity:1;stroke:none;stroke-width:0;stroke-dasharray:none;stroke-opacity:1;paint-order:markers fill stroke"
           d="m 4306.752,-1337.5 c 0,170.667 0,341.333 0,512 34.134,0 68.267,0 102.4,0 0,-88.261 0,-176.522 0,-264.783 51.2,51.2 102.4,102.399 153.6,153.599 51.2,-51.2 102.4,-102.399 153.6,-153.599 0,88.261 0,176.522 0,264.783 34.133,0 68.267,0 102.4,0 0,-170.667 0,-341.333 0,-512 -85.333,85.333 -170.667,170.667 -256,256 -85.333,-85.333 -170.667,-170.667 -256,-256 z" /><path
           style="fill:#ffffff;fill-opacity:1;stroke:none;stroke-width:0;stroke-dasharray:none;stroke-opacity:1;paint-order:markers fill stroke"
           d="m 4850.754,-825.5 256,-512 256,512 h -114.487 l -141.513,-283.026 -141.513,283.026 z"
           id="path13-2-8-8-1-8-8-0-3-2-24" /><path
           style="fill:#ffffff;fill-opacity:1;stroke:none;stroke-width:100;stroke-linecap:butt;stroke-linejoin:miter;stroke-miterlimit:4;stroke-dasharray:none;stroke-opacity:1;paint-order:markers fill stroke"
           d="m 5394.756,-825.5 v -512 l 409.599,307.199 V -1337.5 h 102.401 v 512 l -409.6,-307.2 v 307.2 z"
           id="path65-8-8-3-6-7-7-1-1-7" /><path
           style="fill:#ffffff;stroke-width:51.2002;paint-order:markers fill stroke"
           d="m 6482.76,-1337.5 v 512 h 512 v -102.401 h -409.6 v -102.4 h 409.6 v -102.4 h -409.6 V -1235.1 h 409.6 v -102.4 z"
           id="path17-0-9-7-1-9-6" /></g></g></g></svg>
